<?xml version="1.0" encoding="UTF-8" standalone="no"?><!DOCTYPE svg PUBLIC "-//W3C//DTD SVG 1.1//EN" "http://www.w3.org/Graphics/SVG/1.1/DTD/svg11.dtd"><svg width="100%" height="100%" viewBox="0 0 123 123" version="1.1" xmlns="http://www.w3.org/2000/svg" xmlns:xlink="http://www.w3.org/1999/xlink" xml:space="preserve" xmlns:serif="http://www.serif.com/" style="fill-rule:evenodd;clip-rule:evenodd;stroke-linejoin:round;stroke-miterlimit:2;"><rect id="Artboard1" x="0" y="0" width="122.88" height="122.88" style="fill:#fff;"/><g id="Artboard11" serif:id="Artboard1"><g id="camera"><path id="lens" d="M113.325,48.955l0.005,55.796l-24.751,-13.947l-0.002,-27.897l24.748,-13.952Z"/><path id="body" d="M84.561,61.331l0,30.612c0,8.447 -6.858,15.306 -15.305,15.306l-49.5,-0c-8.447,-0 -15.305,-6.859 -15.305,-15.306l-0,-30.612c-0,-8.447 6.858,-15.305 15.305,-15.305l49.5,-0c8.447,-0 15.305,6.858 15.305,15.305Z"/></g><g id="wave"><g><path d="M84.362,32.723c-5.962,-3.226 -13.163,-3.372 -19.261,-0.392c-1.74,0.851 -2.461,2.95 -1.61,4.69c0.333,0.682 0.858,1.207 1.478,1.543c0.962,0.52 2.153,0.584 3.211,0.067c4.068,-1.988 8.87,-1.892 12.845,0.259c3.975,2.151 6.684,6.117 7.245,10.61c0.241,1.921 1.992,3.284 3.914,3.044c1.921,-0.24 3.284,-1.992 3.044,-3.914c-0.841,-6.735 -4.904,-12.681 -10.866,-15.907Z" style="fill-rule:nonzero;"/><path d="M90.618,21.159c-8.518,-4.607 -18.637,-5.381 -27.765,-2.123c-1.824,0.651 -2.774,2.657 -2.123,4.481c0.302,0.848 0.898,1.507 1.632,1.904c0.845,0.457 1.873,0.567 2.848,0.219c7.257,-2.59 15.302,-1.976 22.071,1.687c6.77,3.662 11.687,10.059 13.489,17.551c0.453,1.883 2.347,3.041 4.229,2.588c1.883,-0.453 3.042,-2.346 2.589,-4.228c-2.268,-9.424 -8.453,-17.471 -16.97,-22.079Z" style="fill-rule:nonzero;"/><path d="M119.834,38.137c-3.543,-12.312 -11.698,-22.448 -22.961,-28.541c-11.262,-6.093 -24.208,-7.372 -36.452,-3.601c-1.851,0.57 -2.889,2.532 -2.319,4.382c0.281,0.914 0.902,1.63 1.682,2.052c0.799,0.432 1.764,0.555 2.7,0.267c10.431,-3.212 21.459,-2.123 31.053,3.067c9.594,5.191 16.54,13.825 19.559,24.313c0.535,1.861 2.478,2.935 4.338,2.4c1.861,-0.536 2.935,-2.478 2.4,-4.339Z" style="fill-rule:nonzero;"/></g><g id="wave1" serif:id="wave"></g></g></g></svg>